<?xml version="1.0" encoding="utf-8"?>
<!-- Generator: Adobe Illustrator 17.1.0, SVG Export Plug-In . SVG Version: 6.00 Build 0)  -->
<!DOCTYPE svg PUBLIC "-//W3C//DTD SVG 1.1//EN" "http://www.w3.org/Graphics/SVG/1.1/DTD/svg11.dtd">
<svg version="1.1" id="Слой_1" xmlns="http://www.w3.org/2000/svg" xmlns:xlink="http://www.w3.org/1999/xlink" x="0px" y="0px"
	 width="19.4px" height="16px" viewBox="0 0 19.4 16" enable-background="new 0 0 19.4 16" xml:space="preserve">
<path fill="#010202" d="M15.8,10.4H6.8L4.2,1H0V0h5l2.6,9.4h7.6l2.8-6.8h-7.7v-1h9.2L15.8,10.4z M8,12.7c-0.9,0-1.6,0.7-1.6,1.6
	S7.1,16,8,16s1.6-0.7,1.6-1.6S8.9,12.7,8,12.7z M14,12.7c-0.9,0-1.6,0.7-1.6,1.6S13.1,16,14,16s1.6-0.7,1.6-1.6S14.9,12.7,14,12.7z"
	/>
</svg>
