<?xml version="1.0" encoding="utf-8"?>
<!-- Generator: Adobe Illustrator 17.1.0, SVG Export Plug-In . SVG Version: 6.00 Build 0)  -->
<!DOCTYPE svg PUBLIC "-//W3C//DTD SVG 1.1//EN" "http://www.w3.org/Graphics/SVG/1.1/DTD/svg11.dtd">
<svg version="1.1" id="Слой_2" xmlns="http://www.w3.org/2000/svg" xmlns:xlink="http://www.w3.org/1999/xlink" x="0px" y="0px"
	 width="17.1px" height="18px" viewBox="0 0 17.1 18" enable-background="new 0 0 17.1 18" xml:space="preserve">
<g>
	<path fill="#010202" d="M17.1,16.7L17.1,16.7c0-0.9-0.5-1.9-1.2-2.5c-1.8-1.4-3.6-2.3-4.2-2.7V9.7C11.8,9.4,12,9.1,12,8.8
		c0.5-0.2,0.7-0.9,0.9-1.5c0.2-0.8,0.2-1.4-0.1-1.7C13.2,4.1,13,2.7,12.5,2c-0.3-0.4-0.6-0.5-0.8-0.6c-0.2-0.2-0.5-0.6-1-0.9
		C10.1,0.2,9.4,0,8.8,0C8.6,0,8.5,0,8.4,0C8.1,0,7.8,0.1,7.5,0.2c0,0,0,0,0,0c-0.3,0.1-0.7,0.3-1,0.5c-0.4,0.2-0.7,0.5-1,0.8
		C5,2.1,4.6,2.7,4.5,3.4C4.3,4,4.3,4.7,4.4,5.3c-0.1,0-0.1,0.1-0.2,0.2C4,5.8,4,6.3,4.2,7.1c0.2,0.6,0.4,1.1,0.7,1.4
		C5,9,5.2,9.5,5.4,9.9v1.7c-0.6,0.3-2.4,1.3-4.2,2.7C0.5,14.8,0,15.8,0,16.8v0C0,17.4,0.6,18,1.2,18h14.6
		C16.6,18,17.1,17.4,17.1,16.7z M0.9,16.7L0.9,16.7c0-0.7,0.3-1.3,0.9-1.7c1.9-1.5,3.9-2.5,4.2-2.6c0.2-0.1,0.3-0.3,0.3-0.5v-2
		c0-0.1,0-0.2-0.1-0.2C6,9.2,5.8,8.7,5.8,8.1c0-0.2-0.2-0.3-0.3-0.4c0-0.1-0.2-0.3-0.4-0.9C4.9,6.4,4.9,6.1,5,6.1
		c0.1,0,0.3-0.1,0.4-0.2c0.1-0.1,0.1-0.3,0.1-0.4C5.2,4.9,5.2,4.2,5.3,3.6c0.1-0.5,0.4-1,0.9-1.5C6.4,1.9,6.7,1.6,7,1.4c0,0,0,0,0,0
		C7.3,1.3,7.5,1.1,7.8,1c0,0,0,0,0,0C8,1,8.2,0.9,8.5,0.9C9.1,0.9,9.7,1,10.2,1.3C10.7,1.6,11,2,11,2c0.1,0.1,0.2,0.2,0.4,0.2
		c0,0,0.2,0,0.5,0.3c0.2,0.3,0.5,1.3,0.1,3.2c0,0.2,0.1,0.4,0.2,0.5c0,0.1,0,0.3-0.1,0.8c-0.1,0.5-0.3,0.7-0.3,0.8
		c-0.1,0-0.2,0-0.3,0c-0.1,0.1-0.2,0.2-0.3,0.3c-0.1,0.4-0.2,0.8-0.4,1.2c0,0.1,0,0.1,0,0.2v2.2c0,0.2,0.1,0.4,0.3,0.5
		c0.4,0.2,2.3,1.2,4.2,2.6c0.5,0.4,0.9,1.1,0.9,1.8v0c0,0.2-0.2,0.3-0.3,0.3H1.2C1.1,17.1,0.9,16.9,0.9,16.7z"/>
</g>
</svg>
