<?xml version="1.0" encoding="utf-8"?>
<!-- Generator: Adobe Illustrator 17.1.0, SVG Export Plug-In . SVG Version: 6.00 Build 0)  -->
<!DOCTYPE svg PUBLIC "-//W3C//DTD SVG 1.1//EN" "http://www.w3.org/Graphics/SVG/1.1/DTD/svg11.dtd">
<svg version="1.1" id="Слой_1" xmlns="http://www.w3.org/2000/svg" xmlns:xlink="http://www.w3.org/1999/xlink" x="0px" y="0px"
	 width="320.7px" height="117.9px" viewBox="0 0 320.7 117.9" enable-background="new 0 0 320.7 117.9" xml:space="preserve">
<g>
	<path d="M57.9,71.1c3.8-15.7,6.3-31.2,13.3-45.3c1.3-2.5-0.7-2.8-2.1-3.4c-3.5-1.5-7.2-2.8-10.3-5.1c-0.9-0.7-2.1-1.7-1.3-2.9
		c0.9-1.4,2-0.2,3,0.4c2.8,1.8,5.8,3.3,8.8,4.7c3.4,1.6,5.3,0.7,7.4-2.2c6-8.7,13.9-14.7,24.5-16.7c5.9-1.1,11.7-0.8,17.1,1.8
		c4.6,2.2,7.9,5.6,8.1,11.1c0.2,5.6-2.9,9.4-7.7,11.8c-8.5,4.3-17.4,3.7-26.4,2.4c-4.3-0.6-8.5-1.5-12.7-2.6
		c-2.8-0.7-4.5-0.2-5.9,2.6c-7.5,14.8-9.5,31.1-13,47c-0.1,0.6,0,1.4,0.3,1.9c7.5,10,14.5,20.6,28.3,22.9c5.8,1,11.2-1,16.6-2.6
		c1-0.3,2.1-1.3,3.2-0.2c-17.1,9-33.8,7.4-49.7-15.7c-2.2,4.6-4.2,9.1-6.4,13.4c-2.7,5.4-5.9,10.5-10.1,14.8
		c-8.4,8.6-17,10.5-27.1,5.9C5.8,110.8-0.7,100.2,0.1,89.8c1.5-19.1,17.6-31.3,37.7-28.4C46.1,62.7,48.6,63.9,57.9,71.1z M34.4,64.3
		C18,64.3,7.8,71.4,4.1,84.5C1,95.6,5.8,106.2,16.7,112.1c8.9,4.8,17.6,2.6,25.4-6.8c6.1-7.2,9.5-15.9,13.2-24.4
		c2-4.6,0.5-7.6-2.7-10.6C47.1,65.1,40.2,64.5,34.4,64.3z M101.5,25.2c4.9,0.2,9.7-0.2,14.1-2.4c4.2-2.1,6.9-5.4,6.7-10.2
		c-0.2-5-4-7-8.1-8.3c-12.2-4-30.1,3.8-36,15.4c-1.2,2.3-0.1,2.4,1.6,2.8C87,23.9,94.2,25.1,101.5,25.2z M175,66.1
		c-3.6,7.4-10,8.1-16.9,7c-6.1-1-10.7-4-11.5-10.6c-0.4-3.3-2.6-3.3-4.9-3.8c-2.9-0.6-6.2-2.6-8.4-1.7c-1.8,0.8-2.3,4.8-3.4,7.4
		c-3.1,7.2-7.8,12.7-15.8,14.6c-3.9,0.9-5.6-0.4-5.5-4.5c0.2-6.2,3.2-11.5,5.3-17c0.7-1.9,2.9-4.2,1.1-5.9c-1.8-1.6-4.4,0-6.5,1
		c-3.7,1.7-5.7,5-7.2,8.6c-2.7,6.4-6.3,12.2-11.9,16.4c-2.9,2.2-6.2,4.5-10.1,2.6c-4.1-2.1-4.6-6.1-3.9-10c2-11.4,8.5-19.7,18.7-25
		c4.1-2.1,6.8-0.6,8.8,4.4c0.9,2.3,1.4,2.8,3.7,1.3c3.2-2.1,7-5.7,10.7-2.4c4.1,3.6,0.3,7.7-1.3,11.3c-1.8,4-3.6,7.9-4.3,12.2
		c-0.7,3.9,0.8,4.8,4.4,3.4c4-1.5,6.6-4.4,8.6-8c2.5-4.4,4.3-9,5.7-13.8c0.8-2.6,1.7-2.8,3.7-1.2c1.4,1.1,3.1,2,4.8,2.6
		c5.8,1.9,6.9,1.4,9.4-4.2c2.6-5.8,6.6-9.5,13.3-9.7c3.3-0.1,5.7,1.4,7.2,4.4c1.5,3,0.3,5.5-1.6,7.8c-3.5,4.1-8.5,5-13.4,5.8
		c-4.7,0.8-5.2,1.9-2.7,6.1c3.7,6.2,14.4,7.8,21,3.2C173,67.7,174,66.9,175,66.1z M101.5,50.8c-0.1-2-2.3-3.3-5.6-2.8
		c-7.7,1-19.5,17-18.2,24.5c0.7,4.1,3.8,5.8,7.8,4.2C91.3,74.3,101.7,58.7,101.5,50.8z M152,56.2c4.9-0.3,8.9-1.1,12.3-3.7
		c1.9-1.4,3.5-3.2,2.2-5.9c-1.2-2.4-3.4-3.1-5.8-2.6c-5.1,1.1-8.2,4.5-10.2,9.2C149.2,55.9,150.2,56.5,152,56.2z"/>
	<g>
		<path d="M140.5,113.2l-3.8-9.8h-12.3l-3.8,9.8H117l12.1-30.8h3l12.1,30.8H140.5z M135.6,100.2l-3.6-9.5c-0.5-1.2-0.9-2.7-1.4-4.4
			c-0.3,1.3-0.7,2.8-1.3,4.4l-3.6,9.5H135.6z"/>
		<path d="M172.9,97.5c0,5.1-1.4,8.9-4.1,11.6c-2.8,2.7-6.7,4-11.9,4h-8.5V82.5h9.4c4.8,0,8.5,1.3,11.1,4
			C171.6,89.1,172.9,92.8,172.9,97.5z M169.2,97.6c0-4-1-7-3-9c-2-2-5-3-9-3H152v24.5h4.3c4.3,0,7.5-1,9.6-3.1
			C168.1,104.8,169.2,101.7,169.2,97.6z"/>
		<path d="M206.4,97.8c0,4.9-1.2,8.8-3.7,11.6c-2.5,2.8-5.9,4.2-10.4,4.2c-4.5,0-8-1.4-10.5-4.1c-2.5-2.8-3.7-6.7-3.7-11.7
			c0-5,1.2-8.9,3.7-11.6c2.5-2.8,6-4.1,10.5-4.1c4.4,0,7.9,1.4,10.3,4.2S206.4,92.8,206.4,97.8z M182,97.8c0,4.2,0.9,7.3,2.7,9.5
			c1.8,2.1,4.3,3.2,7.7,3.2c3.4,0,6-1.1,7.7-3.2c1.7-2.1,2.6-5.3,2.6-9.5c0-4.1-0.9-7.3-2.6-9.4s-4.3-3.2-7.7-3.2
			c-3.4,0-6,1.1-7.8,3.2C182.9,90.5,182,93.7,182,97.8z"/>
		<path d="M216.9,100.4v12.8h-3.6V82.5h8.4c3.8,0,6.5,0.7,8.3,2.2c1.8,1.4,2.7,3.6,2.7,6.5c0,4.1-2.1,6.8-6.2,8.2l8.3,13.8h-4.2
			l-7.4-12.8H216.9z M216.9,97.3h4.9c2.5,0,4.4-0.5,5.5-1.5s1.8-2.5,1.8-4.5c0-2-0.6-3.5-1.8-4.4c-1.2-0.9-3.1-1.3-5.8-1.3h-4.6
			V97.3z"/>
		<path d="M263.8,113.2h-4.1L243,87.4h-0.2c0.2,3,0.3,5.8,0.3,8.3v17.4h-3.3V82.5h4l16.7,25.7h0.2c0-0.4-0.1-1.6-0.2-3.6
			s-0.1-3.5-0.1-4.4V82.5h3.3V113.2z"/>
		<path d="M289.4,113.2h-17.1V82.5h17.1v3.2h-13.5v9.9h12.7v3.2h-12.7V110h13.5V113.2z"/>
		<path d="M320.7,97.5c0,5.1-1.4,8.9-4.1,11.6c-2.8,2.7-6.7,4-11.9,4h-8.5V82.5h9.4c4.8,0,8.5,1.3,11.1,4S320.7,92.8,320.7,97.5z
			 M316.9,97.6c0-4-1-7-3-9c-2-2-5-3-9-3h-5.2v24.5h4.3c4.3,0,7.5-1,9.6-3.1C315.9,104.8,316.9,101.7,316.9,97.6z"/>
	</g>
</g>
</svg>
