<?xml version="1.0" encoding="utf-8"?>
<!-- Generator: Adobe Illustrator 17.1.0, SVG Export Plug-In . SVG Version: 6.00 Build 0)  -->
<!DOCTYPE svg PUBLIC "-//W3C//DTD SVG 1.1//EN" "http://www.w3.org/Graphics/SVG/1.1/DTD/svg11.dtd">
<svg version="1.1" id="Слой_1" xmlns="http://www.w3.org/2000/svg" xmlns:xlink="http://www.w3.org/1999/xlink" x="0px" y="0px"
	 width="17.3px" height="17.9px" viewBox="0 0 17.3 17.9" enable-background="new 0 0 17.3 17.9" xml:space="preserve">
<path fill="#010202" d="M17.2,17.2l-5-5.2c1.3-1.3,2-3,2-4.9C14.2,3.2,11,0,7.1,0S0,3.2,0,7.1s3.2,7.1,7.1,7.1
	c1.7,0,3.3-0.6,4.5-1.6l5,5.2c0.1,0.1,0.2,0.1,0.2,0.1c0.1,0,0.2-0.1,0.3-0.2C17.3,17.6,17.4,17.4,17.2,17.2z M7.1,13.3
	c-3.4,0-6.2-2.8-6.2-6.2s2.8-6.2,6.2-6.2s6.2,2.8,6.2,6.2S10.5,13.3,7.1,13.3z"/>
</svg>
