<?xml version="1.0" encoding="utf-8"?>
<!-- Generator: Adobe Illustrator 17.1.0, SVG Export Plug-In . SVG Version: 6.00 Build 0)  -->
<!DOCTYPE svg PUBLIC "-//W3C//DTD SVG 1.1//EN" "http://www.w3.org/Graphics/SVG/1.1/DTD/svg11.dtd">
<svg version="1.1" id="Capa_1" xmlns="http://www.w3.org/2000/svg" xmlns:xlink="http://www.w3.org/1999/xlink" x="0px" y="0px"
	 width="20px" height="20px" viewBox="287.6 410.9 20 20" enable-background="new 287.6 410.9 20 20" xml:space="preserve">
<g transform="translate(-1 -1)">
	<g>
		<g>
			<path d="M308.1,427.4l-4-2.7c-0.5-0.3-1.2-0.2-1.6,0.3l-1.2,1.5c-0.2,0.2-0.4,0.3-0.6,0.1l-0.2-0.1c-0.7-0.4-1.7-0.9-3.5-2.8
				c-1.9-1.9-2.4-2.8-2.8-3.5l-0.1-0.2c-0.1-0.2-0.1-0.5,0.1-0.6l1.5-1.2c0.5-0.4,0.6-1.1,0.3-1.6l-2.7-4c-0.3-0.5-1-0.7-1.6-0.4
				l-1.7,1c-0.5,0.3-0.9,0.8-1.1,1.4c-0.6,2.2-0.2,6.1,5.5,11.7c4.5,4.5,7.8,5.7,10.1,5.7c0.5,0,1.1-0.1,1.6-0.2
				c0.6-0.2,1.1-0.6,1.4-1.1l1-1.7C308.8,428.4,308.6,427.7,308.1,427.4z M307.9,428.6l-1,1.7c-0.2,0.4-0.6,0.7-1,0.8
				c-2.1,0.6-5.6,0.1-11.1-5.3c-5.4-5.4-5.9-9-5.3-11.1c0.1-0.4,0.4-0.8,0.8-1l1.7-1c0.2-0.1,0.5-0.1,0.7,0.2l1.5,2.2l1.2,1.8
				c0.1,0.2,0.1,0.5-0.1,0.7l-1.5,1.2c-0.5,0.4-0.6,1-0.3,1.5l0.1,0.2c0.4,0.8,1,1.8,2.9,3.7c1.9,1.9,2.9,2.5,3.7,2.9l0.2,0.1
				c0.5,0.3,1.1,0.2,1.5-0.3l1.2-1.5c0.2-0.2,0.5-0.3,0.7-0.1l4,2.7C308,428.1,308,428.4,307.9,428.6z"/>
			<path d="M300,415.3c3.1,0,5.7,2.5,5.7,5.7c0,0.2,0.1,0.3,0.3,0.3s0.3-0.1,0.3-0.3c0-3.5-2.8-6.3-6.3-6.3c-0.2,0-0.3,0.1-0.3,0.3
				C299.6,415.1,299.8,415.3,300,415.3z"/>
			<path d="M300,417.3c2,0,3.7,1.6,3.7,3.7c0,0.2,0.1,0.3,0.3,0.3c0.2,0,0.3-0.1,0.3-0.3c0-2.4-1.9-4.3-4.3-4.3
				c-0.2,0-0.3,0.1-0.3,0.3C299.6,417.1,299.8,417.3,300,417.3z"/>
			<path d="M300,419.3c0.9,0,1.7,0.7,1.7,1.7c0,0.2,0.1,0.3,0.3,0.3s0.3-0.1,0.3-0.3c0-1.3-1-2.3-2.3-2.3c-0.2,0-0.3,0.1-0.3,0.3
				C299.6,419.1,299.8,419.3,300,419.3z"/>
		</g>
	</g>
</g>
</svg>
